<?xml version="1.0" encoding="UTF-8" standalone="no"?>
<svg
   xmlns:dc="http://purl.org/dc/elements/1.1/"
   xmlns:cc="http://creativecommons.org/ns#"
   xmlns:rdf="http://www.w3.org/1999/02/22-rdf-syntax-ns#"
   xmlns:svg="http://www.w3.org/2000/svg"
   xmlns="http://www.w3.org/2000/svg"
   xmlns:sodipodi="http://sodipodi.sourceforge.net/DTD/sodipodi-0.dtd"
   xmlns:inkscape="http://www.inkscape.org/namespaces/inkscape"
   sodipodi:docname="CRAFTY_logo_modern.svg"
   id="svg22"
   version="1.1"
   height="1284.1456"
   width="3807.3218"
   inkscape:export-filename="C:\Users\byari-m\Documents\GitRepo\CraftyProject\crafty-gui\src\main\resources\graphic\CRAFTY_logo_modern.png"
   inkscape:export-xdpi="96"
   inkscape:export-ydpi="96"
   inkscape:version="1.0.2-2 (e86c870879, 2021-01-15)">
  <metadata
     id="metadata26">
    <rdf:RDF>
      <cc:Work
         rdf:about="">
        <dc:format>image/svg+xml</dc:format>
        <dc:type
           rdf:resource="http://purl.org/dc/dcmitype/StillImage" />
        <dc:title></dc:title>
      </cc:Work>
    </rdf:RDF>
  </metadata>
  <sodipodi:namedview
     pagecolor="#ffffff"
     bordercolor="#cccccc"
     borderopacity="1"
     objecttolerance="10"
     gridtolerance="10"
     guidetolerance="10"
     inkscape:pageopacity="0"
     inkscape:pageshadow="2"
     inkscape:window-width="2560"
     inkscape:window-height="1370"
     id="namedview24"
     showgrid="false"
     showguides="false"
     inkscape:zoom="0.27354987"
     inkscape:cx="2118.0371"
     inkscape:cy="683.68549"
     inkscape:window-x="-2566"
     inkscape:window-y="-190"
     inkscape:window-maximized="1"
     inkscape:current-layer="g1576"
     inkscape:snap-nodes="false"
     fit-margin-top="0.9"
     fit-margin-left="0.9"
     fit-margin-right="0.9"
     fit-margin-bottom="0.9"
     inkscape:document-rotation="0"
     lock-margins="true" />
  <style
     id="style2">
    .title { font: bold 80px 'Montserrat', sans-serif; fill: #265D69; }
    .highlight { fill: #4FBDBA; }
    .grid-circle { fill: none; stroke: #4FBDBA; stroke-width: 2; }
    .subtitle { font: 28px 'Montserrat', sans-serif; fill: #333333; }
  </style>
  <!-- "C" with grid -->
  <defs
     id="defs10">
    <rect
       x="371.9967"
       y="413.36893"
       width="3.6470263"
       height="7.9303393"
       id="rect2032" />
    <rect
       x="1032.3759"
       y="-152.73506"
       width="16.970564"
       height="53.740116"
       id="rect1554" />
    <pattern
       id="grid"
       patternUnits="userSpaceOnUse"
       width="10"
       height="10">
      <path
         d="M 10 0 L 0 0 0 10"
         fill="none"
         stroke="#ffffff"
         stroke-width="0.5"
         id="path4" />
    </pattern>
    <clipPath
       id="clip-c">
      <text
         x="50"
         y="120"
         font-size="80px"
         font-family="Montserrat"
         font-weight="bold"
         id="text7">C</text>
    </clipPath>
  </defs>
  <!-- Grid background inside C -->
  <!-- Remaining letters -->
  <!-- Subtitle -->
  <g
     id="g1576"
     transform="matrix(6.2043473,0,0,5.7065445,-4813.5133,-3919.7845)"
     style="stroke-width:0.16806">
    <g
       id="g873" />
    <text
       xml:space="preserve"
       id="text1552"
       style="font-style:normal;font-variant:normal;font-weight:normal;font-stretch:normal;font-size:25.3333px;line-height:115%;font-family:sans-serif;-inkscape-font-specification:sans-serif;text-align:start;white-space:pre;shape-inside:url(#rect1554);opacity:1;fill:#250000;fill-opacity:1;stroke:none;stroke-width:0.126046;stroke-miterlimit:4;stroke-dasharray:none;stroke-opacity:1;"
       transform="translate(178.02566,133.48654)" />
    <text
       xml:space="preserve"
       id="text2030"
       style="font-style:normal;font-variant:normal;font-weight:normal;font-stretch:normal;font-size:5.37793px;line-height:115%;font-family:sans-serif;-inkscape-font-specification:sans-serif;text-align:start;white-space:pre;shape-inside:url(#rect2032);opacity:1;fill:#5b9498;fill-opacity:1;stroke:none;stroke-width:0.630226;stroke-miterlimit:4;stroke-dasharray:none;stroke-opacity:1;"
       transform="translate(178.02566,133.48654)" />
    <rect
       style="fill:#ffffff;fill-opacity:1;stroke:none;stroke-width:0.526197;stroke-miterlimit:1.5"
       id="rect39"
       width="613.36377"
       height="224.7149"
       x="775.97418"
       y="687.05054"
       rx="2.0483541"
       ry="2.9603379" />
    <g
       id="g907"
       transform="translate(436.07098,390.95504)">
      <path
         style="fill:#204c53;fill-opacity:1;stroke:none;stroke-width:0.16806;stroke-opacity:1"
         d="m 483.18159,371.43632 v -48.01563 l 19.09902,0.0118 c 20.711,0.0127 24.8173,0.49593 31.4668,3.70281 9.0055,4.34309 13.965,11.54567 15.6017,22.65755 1.9021,12.91426 -3.7071,25.22766 -13.9,30.51372 l -4.041,2.09562 3.2629,5.48448 c 7.0325,11.82067 17.2341,29.51179 17.6047,30.52923 0.3478,0.95475 -0.6828,1.0517 -9.4086,0.88508 l -9.7994,-0.18714 -9.793,-16.90691 -9.79303,-16.90691 -5.84128,-0.19445 -5.84128,-0.19444 v 17.27042 17.27043 h -9.30876 -9.30877 z m 40.50312,-4.16168 c 1.974,-0.96317 4.1687,-2.62717 4.8772,-3.69778 5.5126,-8.33021 2.4067,-19.8842 -6.0787,-22.61233 -1.3132,-0.42218 -6.50427,-0.92869 -11.53582,-1.12558 l -9.14827,-0.35797 v 15.03846 15.03847 l 9.14827,-0.26602 c 8.18643,-0.23806 9.52561,-0.45015 12.73732,-2.01725 z m 36.0617,51.35001 c 0.1757,-0.47487 8.0754,-22.09002 17.555,-48.03367 l 17.2357,-47.17029 h 9.3347 9.3347 l 6.6626,18.42854 c 3.6644,10.13569 11.387,31.47016 17.1614,47.40992 5.7744,15.93977 10.4989,29.26189 10.4989,29.60471 0,0.36103 -4.0929,0.54476 -9.7264,0.43664 l -9.7264,-0.18669 -0.8719,-2.7051 c -0.4795,-1.48781 -2.0564,-6.12876 -3.5043,-10.31322 l -2.6324,-7.60811 h -17.4947 -17.4946 l -3.4603,10.31322 -3.4603,10.31321 -9.8655,0.18712 c -7.7963,0.14786 -9.7985,0.006 -9.5462,-0.67628 z m 52.3879,-46.68112 c -1.7899,-5.30031 -4.3083,-12.90064 -5.5966,-16.88962 -1.2882,-3.98897 -2.4867,-7.25507 -2.6632,-7.258 -0.1766,-0.003 -2.6756,7.06482 -5.5533,15.70613 -2.8778,8.6413 -5.4365,16.24403 -5.6861,16.89495 -0.4221,1.1011 0.354,1.18348 11.1499,1.18348 h 11.6036 z m 47.2527,46.68173 c -0.1723,-0.4752 -0.2385,-22.01454 -0.1471,-47.86521 l 0.1662,-47.00122 27.7658,-0.17626 27.7658,-0.17625 v 8.81784 8.81783 l -18.3282,-0.0588 -18.3281,-0.0588 -0.1289,11.53652 -0.1289,11.53652 15.2471,-5e-5 15.2471,-5e-5 v 8.45345 8.45346 l -15.2471,-2.2e-4 -15.2471,-2.2e-4 v 19.10503 19.10503 l -9.1616,0.18772 c -6.9753,0.14292 -9.2364,-0.0185 -9.475,-0.67628 z m 90.2182,-38.56641 4e-4,-39.3931 h -12.0376 -12.0376 v -8.45346 -8.45346 l 33.5629,-0.17511 33.5628,-0.17512 -0.1797,8.62858 -0.1797,8.62857 h -12.0376 -12.0376 l 4e-4,39.3931 4e-4,39.3931 h -9.3088 -9.3087 z m 80.2475,20.65611 v -18.737 l -15.4076,-28.91256 c -8.4741,-15.90191 -15.4076,-29.0773 -15.4076,-29.27864 0,-0.20134 4.4412,-0.36607 9.8693,-0.36607 h 9.8693 l 9.8612,18.93575 c 5.4237,10.41465 10.0105,18.92302 10.1928,18.90747 0.1823,-0.0156 4.7671,-8.53663 10.1885,-18.93574 l 9.8571,-18.90748 h 9.8839 c 5.4362,0 9.8839,0.11733 9.8839,0.26074 0,0.1434 -6.9334,13.29581 -15.4076,29.22756 l -15.4076,28.96682 v 18.78807 18.78807 h -8.9878 -8.9878 z"
         id="path968"
         sodipodi:nodetypes="ccsssscsssccccccccccsssscccsssscccsssscsccccccssscsccscssscccccccccccccccccsssccccccccccccccccccccsscssscssscccccc" />
      <path
         style="fill:#fc9a40;fill-opacity:1;stroke:none;stroke-width:0.16806;stroke-opacity:1"
         d="m 417.74187,418.83065 c -18.97853,-4.45958 -33.0967,-19.67146 -36.31275,-39.12586 -0.95908,-5.80166 -0.44483,-18.02591 1.0116,-24.04688 0.58483,-2.41769 2.39767,-7.28688 4.02854,-10.82043 2.42933,-5.26355 3.90133,-7.41375 8.14509,-11.89784 4.21839,-4.45728 6.30935,-6.06068 11.26477,-8.63807 8.29025,-4.31189 17.26548,-4.70893 21.63143,-4.98985 4.26261,-0.27427 12.26107,0.60013 16.55265,2.13031 9.06265,3.23133 16.02591,8.36008 21.53602,15.86221 l 3.15941,4.3016 -6.89086,4.39871 c -3.78996,2.41929 -7.65818,4.97274 -8.59604,5.67433 l -1.70521,1.27563 -4.09071,-4.30923 c -2.24989,-2.37007 -5.56195,-5.09458 -7.36012,-6.05445 -15.27713,-8.15504 -33.04765,1.04418 -37.11295,19.21215 -2.47669,11.06845 -0.09,21.04098 6.89843,28.82498 9.89029,11.01612 26.25847,11.05906 37.9313,0.0995 1.92407,-1.8065 3.66308,-3.28455 3.86446,-3.28455 0.20137,0 2.03288,1.12588 4.07001,2.50197 2.03713,1.37608 5.85261,3.79464 8.47885,5.37457 l 4.77498,2.87258 -5.73796,6.01228 c -7.1979,7.54201 -13.78502,11.63858 -23.07151,14.34831 -4.4647,1.30276 -17.426,1.46314 -22.46943,0.27804 z"
         id="path968-4"
         sodipodi:nodetypes="ssssssssscsscsssssssscssss" />
      <g
         id="g1482"
         transform="matrix(1.3229037,0,0,1.1493341,-736.8729,-188.56487)"
         style="stroke:#ffffff;stroke-width:0.511104;stroke-miterlimit:4;stroke-dasharray:none;stroke-opacity:1">
        <g
           id="g1464"
           style="stroke:#ffffff;stroke-width:0.511104;stroke-miterlimit:4;stroke-dasharray:none;stroke-opacity:1">
          <g
             id="layer1"
             transform="matrix(0.12397639,0,0,0.10609836,897.05496,-48.13604)"
             style="stroke:#ffffff;stroke-width:4.45641;stroke-miterlimit:4;stroke-dasharray:none;stroke-opacity:1">
            <path
               style="fill:#050004;fill-opacity:1;fill-rule:evenodd;stroke:#ffffff;stroke-width:4.45641;stroke-linecap:butt;stroke-linejoin:miter;stroke-miterlimit:4;stroke-dasharray:none;stroke-opacity:1"
               d="m -463.92744,5036.6723 h 170.45189"
               id="h0"
               sodipodi:nodetypes="cc" />
            <path
               style="fill:#050004;fill-opacity:1;fill-rule:evenodd;stroke:#ffffff;stroke-width:4.45641;stroke-linecap:butt;stroke-linejoin:miter;stroke-miterlimit:4;stroke-dasharray:none;stroke-opacity:1"
               d="m -451.82828,5144.2952 184.94198,-0.2945"
               id="h1"
               sodipodi:nodetypes="cc" />
            <path
               id="h2"
               d="m -413.76668,5251.925 h 239.63997"
               style="fill:#050004;fill-opacity:1;fill-rule:evenodd;stroke:#ffffff;stroke-width:4.45641;stroke-linecap:butt;stroke-linejoin:miter;stroke-miterlimit:4;stroke-dasharray:none;stroke-opacity:1"
               sodipodi:nodetypes="cc" />
            <path
               style="fill:#050004;fill-opacity:1;fill-rule:evenodd;stroke:#ffffff;stroke-width:4.45641;stroke-linecap:butt;stroke-linejoin:miter;stroke-miterlimit:4;stroke-dasharray:none;stroke-opacity:1"
               d="m -340.54206,5359.4041 198.67955,0.1473"
               id="h3"
               sodipodi:nodetypes="cc" />
            <path
               id="v5"
               d="m -444.12299,5038.289 v 131.9911"
               style="fill:#050004;fill-opacity:1;fill-rule:evenodd;stroke:#ffffff;stroke-width:4.45641;stroke-linecap:butt;stroke-linejoin:miter;stroke-miterlimit:4;stroke-dasharray:none;stroke-opacity:1"
               sodipodi:nodetypes="cc" />
            <path
               style="fill:#050004;fill-opacity:1;fill-rule:evenodd;stroke:#ffffff;stroke-width:4.45641;stroke-linecap:butt;stroke-linejoin:miter;stroke-miterlimit:4;stroke-dasharray:none;stroke-opacity:1"
               d="m -343.36954,5036.6723 0.25207,319.4645"
               id="v6"
               sodipodi:nodetypes="cc" />
            <path
               id="v7"
               d="m -242.616,5188.654 v 247.8918"
               style="fill:#050004;fill-opacity:1;fill-rule:evenodd;stroke:#ffffff;stroke-width:4.45641;stroke-linecap:butt;stroke-linejoin:miter;stroke-miterlimit:4;stroke-dasharray:none;stroke-opacity:1"
               sodipodi:nodetypes="cc" />
            <path
               style="fill:#050004;fill-opacity:1;fill-rule:evenodd;stroke:#ffffff;stroke-width:4.45641;stroke-linecap:butt;stroke-linejoin:miter;stroke-miterlimit:4;stroke-dasharray:none;stroke-opacity:1"
               d="m -142.6187,5270.241 0.84531,201.831"
               id="v8"
               sodipodi:nodetypes="cc" />
          </g>
        </g>
      </g>
      <text
         xml:space="preserve"
         style="font-style:normal;font-variant:normal;font-weight:normal;font-stretch:normal;font-size:25.3333px;line-height:115%;font-family:sans-serif;-inkscape-font-specification:sans-serif;text-align:start;text-anchor:start;opacity:1;fill:#252f30;fill-opacity:1;stroke:#0e1f20;stroke-width:0.126046;stroke-miterlimit:4;stroke-dasharray:none;stroke-opacity:1"
         x="386.41266"
         y="447.38019"
         id="text1506"><tspan
           sodipodi:role="line"
           x="386.41266"
           y="447.38019"
           id="tspan1508"
           style="font-style:normal;font-variant:normal;font-weight:normal;font-stretch:normal;font-size:25.3333px;font-family:sans-serif;-inkscape-font-specification:sans-serif;fill:#333333;fill-opacity:1;stroke:none;stroke-width:0.126046;stroke-opacity:1">Modelling Competition for Resources</tspan><tspan
           sodipodi:role="line"
           x="386.41266"
           y="476.51349"
           style="font-style:normal;font-variant:normal;font-weight:normal;font-stretch:normal;font-size:25.3333px;font-family:sans-serif;-inkscape-font-specification:sans-serif;fill:#333333;fill-opacity:1;stroke:none;stroke-width:0.126046;stroke-opacity:1"
           id="tspan2028">between Agent Functional Types</tspan></text>
      <path
         style="fill:#204c53;fill-opacity:1;stroke:none;stroke-width:1.88977"
         d="m 113.93835,478.03195 c -7.17128,-7.7278 -16.686057,-19.63339 -22.807854,-28.53886 l -4.570141,-6.64826 h 16.902405 16.90241 v 20.75554 c 0,11.41555 -0.12561,20.75554 -0.27914,20.75554 -0.15353,0 -2.91998,-2.84578 -6.14768,-6.32396 z"
         id="path859"
         transform="matrix(0.16117731,0,0,0.1752374,373.75624,319.26174)" />
      <path
         style="fill:#fc9a40;fill-opacity:1;stroke:none;stroke-width:1.88977"
         d="m 309.75949,571.88663 c -26.72423,-1.27584 -44.14141,-4.55022 -70.53641,-13.26064 l -11.18853,-3.69225 V 536.1844 517.43505 h 48.32149 48.3215 l 10e-4,8.59409 c 6.5e-4,4.72676 0.19363,17.13143 0.42881,27.56596 l 0.4276,18.97186 -2.86109,-0.10018 c -1.5737,-0.0551 -7.38525,-0.31617 -12.91466,-0.58015 z"
         id="path861"
         transform="matrix(0.16117731,0,0,0.1752374,373.75624,319.26174)" />
      <path
         style="fill:#fc9a40;fill-opacity:1;stroke:none;stroke-width:1.88977"
         d="M 308.27263,571.87451 C 282.73006,570.55376 266.17,567.39959 239.87169,558.84628 l -11.83714,-3.84994 V 536.2157 517.43505 h 48.21708 48.21708 l 0.42872,18.59093 c 0.23579,10.22501 0.42872,22.62969 0.42872,27.56596 v 8.97502 l -3.72951,-0.0982 c -2.05124,-0.054 -8.04704,-0.32142 -13.32401,-0.59428 z"
         id="path863"
         transform="matrix(0.16117731,0,0,0.1752374,373.75624,319.26174)" />
      <path
         style="fill:#204c53;fill-opacity:1;stroke:none;stroke-width:1.88977"
         d="m 311.70532,572.12509 c -27.07715,-1.23266 -45.17468,-4.56743 -71.62427,-13.19796 l -12.0465,-3.93079 V 536.2157 517.43505 h 48.2179 48.2179 l 0.4264,15.0802 c 0.23453,8.29411 0.42708,20.69879 0.42791,27.56596 l 0.001,12.48575 -4.70243,-0.12497 c -2.58634,-0.0687 -6.59961,-0.21134 -8.9184,-0.3169 z"
         id="path865"
         transform="matrix(0.16117731,0,0,0.1752374,373.75624,319.26174)" />
      <path
         style="fill:#204c53;fill-opacity:1;stroke:none;stroke-width:1.88977"
         d="m 125.26759,403.72301 v -35.67358 l 34.70067,0.0248 34.70067,0.0249 4.75503,8.08279 c 2.61527,4.44553 8.89058,13.17412 13.94513,19.39686 l 9.1901,11.31408 v 16.25188 16.25187 h -48.6458 -48.6458 z"
         id="path873"
         transform="matrix(0.16117731,0,0,0.1752374,373.75624,319.26174)" />
    </g>
  </g>
</svg>
